<svg xmlns="http://www.w3.org/2000/svg" viewBox="0 0 600 500" fill="none">
  <!-- 배경 원들 -->
  <circle cx="300" cy="250" r="200" fill="#f8fafc" stroke="#e2e8f0" stroke-width="1"/>
  <circle cx="300" cy="250" r="140" fill="#f1f5f9" stroke="#e2e8f0" stroke-width="0.5"/>

  <!-- 중앙 아이콘: 열린 책 + 도구들 -->
  <!-- 책 -->
  <path d="M220 280 L300 240 L380 280 L300 310 Z" fill="white" stroke="#334155" stroke-width="1.5" stroke-linejoin="round"/>
  <path d="M300 240 V310" stroke="#334155" stroke-width="1" stroke-dasharray="4 3"/>
  <line x1="240" y1="270" x2="290" y2="252" stroke="#cbd5e1" stroke-width="1"/>
  <line x1="245" y1="280" x2="285" y2="265" stroke="#cbd5e1" stroke-width="1"/>
  <line x1="310" y1="252" x2="360" y2="270" stroke="#cbd5e1" stroke-width="1"/>
  <line x1="315" y1="265" x2="355" y2="280" stroke="#cbd5e1" stroke-width="1"/>

  <!-- 왼쪽 위: 캘린더 -->
  <rect x="170" y="150" width="56" height="50" rx="8" fill="white" stroke="#334155" stroke-width="1.5"/>
  <line x1="170" y1="166" x2="226" y2="166" stroke="#334155" stroke-width="1"/>
  <circle cx="186" cy="180" r="3" fill="#94a3b8"/>
  <circle cx="198" cy="180" r="3" fill="#94a3b8"/>
  <circle cx="210" cy="180" r="3" fill="#94a3b8"/>
  <circle cx="186" cy="192" r="3" fill="#0f172a"/>
  <circle cx="198" cy="192" r="3" fill="#94a3b8"/>

  <!-- 오른쪽 위: 차트 -->
  <rect x="374" y="150" width="56" height="50" rx="8" fill="white" stroke="#334155" stroke-width="1.5"/>
  <rect x="384" y="182" width="8" height="10" rx="2" fill="#94a3b8"/>
  <rect x="396" y="172" width="8" height="20" rx="2" fill="#334155"/>
  <rect x="408" y="178" width="8" height="14" rx="2" fill="#94a3b8"/>
  <rect x="420" y="168" width="8" height="24" rx="2" fill="#334155"/>

  <!-- 왼쪽 아래: 체크리스트 -->
  <rect x="140" y="310" width="56" height="50" rx="8" fill="white" stroke="#334155" stroke-width="1.5"/>
  <line x1="162" y1="326" x2="186" y2="326" stroke="#cbd5e1" stroke-width="1.5" stroke-linecap="round"/>
  <line x1="162" y1="335" x2="180" y2="335" stroke="#cbd5e1" stroke-width="1.5" stroke-linecap="round"/>
  <line x1="162" y1="344" x2="184" y2="344" stroke="#cbd5e1" stroke-width="1.5" stroke-linecap="round"/>
  <circle cx="153" cy="326" r="3" stroke="#334155" stroke-width="1"/>
  <path d="M151 335 L153 337 L157 333" stroke="#334155" stroke-width="1" stroke-linecap="round" stroke-linejoin="round"/>
  <circle cx="153" cy="344" r="3" stroke="#334155" stroke-width="1"/>

  <!-- 오른쪽 아래: 사람 -->
  <rect x="404" y="310" width="56" height="50" rx="8" fill="white" stroke="#334155" stroke-width="1.5"/>
  <circle cx="432" cy="326" r="6" stroke="#334155" stroke-width="1.5"/>
  <path d="M420 352 C420 340 444 340 444 352" stroke="#334155" stroke-width="1.5" fill="none"/>

  <!-- 연결선 (점선) -->
  <line x1="226" y1="185" x2="260" y2="250" stroke="#e2e8f0" stroke-width="1" stroke-dasharray="4 4"/>
  <line x1="374" y1="185" x2="340" y2="250" stroke="#e2e8f0" stroke-width="1" stroke-dasharray="4 4"/>
  <line x1="196" y1="335" x2="260" y2="290" stroke="#e2e8f0" stroke-width="1" stroke-dasharray="4 4"/>
  <line x1="404" y1="335" x2="340" y2="290" stroke="#e2e8f0" stroke-width="1" stroke-dasharray="4 4"/>

  <!-- 상단 작은 장식 -->
  <circle cx="300" cy="120" r="4" fill="#0f172a"/>
  <line x1="300" y1="124" x2="300" y2="140" stroke="#e2e8f0" stroke-width="1"/>
</svg>
